<?xml version="1.0" encoding="UTF-8" standalone="no"?>
<!DOCTYPE svg PUBLIC "-//W3C//DTD SVG 1.1//EN"
 "http://www.w3.org/Graphics/SVG/1.1/DTD/svg11.dtd">
<!-- Generated by graphviz version 2.43.0 (0)
 -->
<!-- Title: sourcetree Pages: 1 -->
<svg width="216pt" height="260pt"
 viewBox="0.00 0.00 216.00 260.00" xmlns="http://www.w3.org/2000/svg" xmlns:xlink="http://www.w3.org/1999/xlink">
<g id="graph0" class="graph" transform="scale(1 1) rotate(0) translate(4 256)">
<title>sourcetree</title>
<polygon fill="white" stroke="transparent" points="-4,4 -4,-256 212,-256 212,4 -4,4"/>
<!-- MulleInvocationQueue -->
<g id="node1" class="node">
<title>MulleInvocationQueue</title>
<polygon fill="yellow" stroke="black" points="192.5,-252 15.5,-252 15.5,-216 192.5,-216 192.5,-252"/>
<text text-anchor="middle" x="104" y="-230.3" font-family="Times,serif" font-size="14.00">MulleInvocationQueue</text>
</g>
<!-- MulleObjCLockFoundation -->
<g id="node2" class="node">
<title>MulleObjCLockFoundation</title>
<polygon fill="lightgrey" stroke="black" points="207,-180 1,-180 1,-144 207,-144 207,-180"/>
<text text-anchor="middle" x="104" y="-158.3" font-family="Times,serif" font-size="14.00">MulleObjCLockFoundation</text>
</g>
<!-- MulleInvocationQueue&#45;&gt;MulleObjCLockFoundation -->
<g id="edge1" class="edge">
<title>MulleInvocationQueue&#45;&gt;MulleObjCLockFoundation</title>
<path fill="none" stroke="black" d="M104,-215.7C104,-207.98 104,-198.71 104,-190.11"/>
<polygon fill="black" stroke="black" points="107.5,-190.1 104,-180.1 100.5,-190.1 107.5,-190.1"/>
</g>
<!-- MulleObjCTimeFoundation -->
<g id="node3" class="node">
<title>MulleObjCTimeFoundation</title>
<polygon fill="lightgrey" stroke="black" points="208,-108 0,-108 0,-72 208,-72 208,-108"/>
<text text-anchor="middle" x="104" y="-86.3" font-family="Times,serif" font-size="14.00">MulleObjCTimeFoundation</text>
</g>
<!-- MulleObjCLockFoundation&#45;&gt;MulleObjCTimeFoundation -->
<g id="edge2" class="edge">
<title>MulleObjCLockFoundation&#45;&gt;MulleObjCTimeFoundation</title>
<path fill="none" stroke="black" d="M104,-143.7C104,-135.98 104,-126.71 104,-118.11"/>
<polygon fill="black" stroke="black" points="107.5,-118.1 104,-108.1 100.5,-118.1 107.5,-118.1"/>
</g>
<!-- MulleObjC -->
<g id="node4" class="node">
<title>MulleObjC</title>
<polygon fill="lightgrey" stroke="black" points="95,-36 3,-36 3,0 95,0 95,-36"/>
<text text-anchor="middle" x="49" y="-14.3" font-family="Times,serif" font-size="14.00">MulleObjC</text>
</g>
<!-- MulleObjCTimeFoundation&#45;&gt;MulleObjC -->
<g id="edge3" class="edge">
<title>MulleObjCTimeFoundation&#45;&gt;MulleObjC</title>
<path fill="none" stroke="black" d="M90.4,-71.7C83.88,-63.39 75.93,-53.28 68.75,-44.14"/>
<polygon fill="black" stroke="black" points="71.37,-41.81 62.44,-36.1 65.87,-46.13 71.37,-41.81"/>
</g>
<!-- mulle&#45;time -->
<g id="node5" class="node">
<title>mulle&#45;time</title>
<polygon fill="lightgrey" stroke="black" points="206.5,-36 113.5,-36 113.5,0 206.5,0 206.5,-36"/>
<text text-anchor="middle" x="160" y="-14.3" font-family="Times,serif" font-size="14.00">mulle&#45;time</text>
</g>
<!-- MulleObjCTimeFoundation&#45;&gt;mulle&#45;time -->
<g id="edge4" class="edge">
<title>MulleObjCTimeFoundation&#45;&gt;mulle&#45;time</title>
<path fill="none" stroke="black" d="M117.84,-71.7C124.49,-63.39 132.58,-53.28 139.89,-44.14"/>
<polygon fill="black" stroke="black" points="142.8,-46.1 146.32,-36.1 137.34,-41.73 142.8,-46.1"/>
</g>
</g>
</svg>
